<svg xmlns="http://www.w3.org/2000/svg" viewBox="0 0 156.82 102.96"><defs><style>.cls-1{fill:#172433;}</style></defs><g id="Layer_2" data-name="Layer 2"><g id="Layer_1-2" data-name="Layer 1"><g id="Layer_2-2" data-name="Layer 2"><g id="OBJECTS"><rect class="cls-1" y="100.46" width="156.82" height="2.5"/><path class="cls-1" d="M58.36,62.46H12.84a1.38,1.38,0,0,1-1.37-1.37V50.23a1.39,1.39,0,0,1,1.37-1.37H58.36a1.37,1.37,0,0,1,1.37,1.37V61.09A1.37,1.37,0,0,1,58.36,62.46ZM14.2,59.72H57V51.6H14.2Z"/><path class="cls-1" d="M20.75,83.9H16.43a1.37,1.37,0,0,1-1.09-.54,1.35,1.35,0,0,1-.23-1.2l6-21.44a1.37,1.37,0,0,1,2.64.73L18.2,81.16h1.48l5.69-20.44a1.37,1.37,0,0,1,2.64.73L22,82.9A1.37,1.37,0,0,1,20.75,83.9Z"/><path class="cls-1" d="M54.78,83.9H50.46a1.38,1.38,0,0,1-1.32-1L43.2,61.45a1.37,1.37,0,0,1,1-1.68,1.49,1.49,0,0,1,.36-.05H48.8a1.36,1.36,0,0,1,1.32,1l6,21.44a1.39,1.39,0,0,1-.23,1.2A1.35,1.35,0,0,1,54.78,83.9ZM51.5,81.16H53l-5.21-18.7H46.29Z"/><path class="cls-1" d="M37.76,62.46H33.44a1.37,1.37,0,1,1,0-2.74h4.32a1.37,1.37,0,1,1,0,2.74Z"/><path class="cls-1" d="M51.2,56.85H20a1.37,1.37,0,1,1,0-2.74H51.2a1.37,1.37,0,1,1,0,2.74Z"/><path class="cls-1" d="M42.14,51.6H28.43a1.36,1.36,0,0,1-1.35-1.14l-3.22-19a1.41,1.41,0,0,1,1.39-1.59H45.36a1.37,1.37,0,0,1,1,.48,1.43,1.43,0,0,1,.31,1.12l-3.21,19A1.37,1.37,0,0,1,42.14,51.6ZM29.58,48.86H41l2.74-16.23H26.84Z"/><path class="cls-1" d="M35.29,32.54c-4.81,0-8.57-7.15-8.57-16.27C26.72,7.54,34,.64,34.35.36a1.38,1.38,0,0,1,1.85,0c.31.28,7.63,7.18,7.63,15.91C43.85,25.35,40.09,32.54,35.29,32.54Zm0-29.2c-1.86,2.05-5.83,7.13-5.83,12.93,0,8,3.07,13.53,5.83,13.53s5.82-5.56,5.82-13.53c0-5.8-4-10.92-5.82-12.92Z"/><path class="cls-1" d="M35.29,31.93a1.37,1.37,0,0,1-1.37-1.37V9.67a1.37,1.37,0,1,1,2.74,0V30.56A1.37,1.37,0,0,1,35.29,31.93Z"/><path class="cls-1" d="M140.54,82.35l-6.42-38.44a10,10,0,0,0-9.94-8.43H102.89a1.37,1.37,0,0,0,0,2.74H118.1l-7.37,44.13a1.35,1.35,0,0,0,1.11,1.57h0a.89.89,0,0,0,.23,0,1.36,1.36,0,0,0,1.35-1.14l7.45-44.58h3.32a7.34,7.34,0,0,1,7.24,6.14l6.42,38.44a1.36,1.36,0,0,0,1.35,1.14h.22A1.37,1.37,0,0,0,140.54,82.35Z"/><path class="cls-1" d="M68.2,83.9H68a1.37,1.37,0,0,1-1.15-1.55l2.84-17a1.37,1.37,0,0,1,2.72.33.5.5,0,0,1,0,.12l-2.84,17A1.35,1.35,0,0,1,68.2,83.9Z"/><path class="cls-1" d="M74.08,48.57h-.22A1.37,1.37,0,0,1,72.73,47l1.73-10.38a1.37,1.37,0,0,1,2.71.45L75.43,47.44A1.36,1.36,0,0,1,74.08,48.57Z"/><path class="cls-1" d="M95.29,83.9a1.36,1.36,0,0,1-1.35-1.15L91.2,66.56a1.37,1.37,0,0,1,2.7-.45l2.74,16.24a1.36,1.36,0,0,1-1.12,1.58Z"/><path class="cls-1" d="M89.39,48.53A1.35,1.35,0,0,1,88,47.35l-.51-3a7.34,7.34,0,0,0-7.25-6.14H59a1.37,1.37,0,1,1,0-2.74H80.28a10.08,10.08,0,0,1,10,8.43L90.79,47a1.37,1.37,0,0,1-1.13,1.57A.62.62,0,0,1,89.39,48.53Z"/><path class="cls-1" d="M138.33,60.05l.08-.1a18.21,18.21,0,0,0,3.34-10.51v-27A16.47,16.47,0,0,0,125.31,6H107.2A16.47,16.47,0,0,0,90.76,22.44V45.75H75.2A11.17,11.17,0,0,0,63.9,56.2,11,11,0,0,0,74.38,67.7H125l.79-.08.34,0,.88-.14h.18l1-.25.24-.07c.27-.07.53-.15.8-.24l.28-.1q.41-.14.81-.3l.19-.08c.33-.13.66-.28,1-.44h.07c.29-.14.58-.3.87-.46l.2-.12c.26-.14.51-.3.76-.46l.16-.1a19.67,19.67,0,0,0,1.74-1.3l.1-.09.72-.65.1-.1a19.31,19.31,0,0,0,1.5-1.63h0A8.79,8.79,0,0,1,138.33,60.05ZM66.67,57.54a8.23,8.23,0,0,1,7.42-9c.26,0,.51,0,.76,0h17a1.13,1.13,0,0,0,.68,0h18.54a1.37,1.37,0,0,0,0-2.74H93.53V22.48a13.72,13.72,0,0,1,13.7-13.7h18.08A13.72,13.72,0,0,1,139,22.48v27A15.55,15.55,0,0,1,123.48,65H75.09A8.37,8.37,0,0,1,66.67,57.54Z"/></g></g></g></g></svg>